PathFileType	4	(X/Y/Z)	C:/Users/beibeiliu/ov580/test_trc\sequence.6_training_dense_right.trc
DataRate	CameraRate	NumFrames	NumMarkers	Units	OrigDataRate	OrigDataStartFrame	OrigNumFrames
120	120	24	19	mm	120	40	314
Frame#	Time	ThumbCMC			ThumbMCP			ThumbIP			ThumbTip			IndexMCP			IndexPIP			IndexTip			MiddleMCP			MiddlePIP			MiddleTip			RingMCP			RingPIP			RingTip			PinkyMCP			PinkyPIP			PinkyTip			BackHand1			BackHand2			BackHand3	
		X0	Y0	Z0	X1	Y1	Z1	X2	Y2	Z2	X3	Y3	Z3	X4	Y4	Z4	X5	Y5	Z5	X6	Y6	Z6	X7	Y7	Z7	X8	Y8	Z8	X9	Y9	Z9	X10	Y10	Z10	X11	Y11	Z11	X12	Y12	Z12	X13	Y13	Z13	X14	Y14	Z14	X15	Y15	Z15	X16	Y16	Z16	X17	Y17	Z17	X18	Y18	Z18	
39	0.325	232.013	9.58832	13.0189	209.789	34.7708	-3.80266	191.396	42.9093	-17.5922	166.943	35.7156	-24.4732	211.5	5.44158	-50.1673	194.402	24.0912	-70.1965	178.609	41.2665	-64.8668	189.06	1.83204	-50.2657	170.573	27.3806	-48.8424	175.962	29.2053	-16.4772	172.408	-1.14039	-36.4904	164.578	20.902	-23.2138	178.967	14.2164	1.69324	165.489	-11.8503	-22.6464	159.19	8.59015	-8.53021	183.071	3.40455	5.90541	202.008	-35.1925	-10.6161	211.53	-42.4606	11.7901	226.492	-22.4204	-6.26771	
40	0.333333	229.394	10.6314	12.1744	210.954	35.9873	0.805104	191.152	43.7062	-13.1669	165.225	38.3471	-25.2012	212.654	10.1186	-54.4022	197.218	21.2214	-71.0415	176.605	37.9131	-72.0354	186.468	0.856994	-48.538	168.234	26.3045	-48.8029	174.909	32.4777	-18.354	169.143	0.77754	-36.5225	162.014	20.316	-21.4419	174.93	15.5262	1.44689	163.447	-9.86717	-22.7395	159.415	9.58117	-8.77331	181.786	5.5122	10.5539	204.714	-33.9441	-11.5726	215.02	-39.2081	9.59497	230.945	-18.0396	-2.68615	
41	0.341667	227.029	11.7785	9.68843	207.255	37.2722	-2.64015	189.702	40.1513	-12.6761	163.161	38.4628	-25.1835	208.851	8.01541	-51.8741	196.8	23.5942	-74.1753	179.617	36.5832	-79.2918	187.486	6.86462	-52.6204	167.845	26.1615	-48.7733	176.111	30.2507	-15.5905	171.946	1.0321	-36.1402	161.706	19.2172	-22.3783	180.773	16.7536	2.26652	164.079	-9.71977	-21.9701	159.819	9.19258	-7.91271	181.076	8.58542	7.03947	203.02	-32.366	-8.60843	216.374	-37.7592	13.3354	229.153	-16.5101	-5.5029	
42	0.35	228.066	12.2372	12.1061	204.697	37.2611	-4.17445	186.428	44.0693	-14.6982	164.283	35.1556	-22.8851	211.463	12.4643	-56.0116	196.49	19.7292	-71.0019	182.834	36.2525	-83.4793	184.495	6.35032	-53.3205	165.606	27.1167	-46.5142	173.199	29.1245	-14.8831	169.954	-1.18359	-34.528	164.106	23.013	-19.6402	179.466	15.8996	4.7493	163.221	-7.40837	-23.0464	160.088	9.32555	-11.3156	180.601	8.40683	6.62735	207.295	-30.3317	-11.5106	218.286	-37.9209	14.3214	228.828	-18.192	-5.35185	
43	0.358333	226.972	14.7069	7.90203	205.377	36.6101	-0.852501	182.981	43.4401	-17.95	161.702	37.0047	-23.3828	208.347	11.4561	-54.6189	198.658	23.6763	-72.5972	181.629	34.0929	-83.8867	186.376	9.41949	-53.0388	165.94	27.012	-46.678	177.182	33.2019	-14.5806	171.294	0.921863	-34.7252	163.34	22.7822	-17.6771	180.669	17.8767	2.98253	163.458	-11.2494	-20.7313	160.78	12.2156	-5.42094	179.672	12.8004	5.64124	205.972	-27.8092	-10.8494	218.654	-34.6581	8.41108	230.699	-16.2601	-3.43396	
44	0.366667	227.497	14.3359	11.4533	205.544	39.4652	-0.876399	182.176	45.2605	-17.701	160.51	37.4074	-23.3473	208.941	13.5485	-53.0261	197.099	22.14	-71.7444	185.329	38.7559	-87.1933	184.653	7.83215	-52.6093	163.946	26.8397	-45.1999	175.424	30.7627	-14.0836	170.803	0.875487	-35.5096	163.475	24.0008	-17.655	180.375	21.4616	1.22785	161.595	-8.75802	-20.2916	161.545	12.6362	-5.76219	184.371	10.8956	5.8198	206.468	-29.6099	-10.8362	216.619	-37.0367	8.30209	228.952	-14.0632	-8.73733	
45	0.375	229.877	15.7105	10.9841	206.926	39.3485	-1.49417	184.486	45.2452	-17.2605	163.396	40.3364	-21.7785	208.539	15.4772	-56.6691	198.415	26.5423	-74.1775	182.417	40.302	-86.6008	184.34	6.31906	-51.1512	167.018	29.6189	-47.2526	178.126	35.0733	-15.1779	170.991	5.4895	-36.428	161.496	22.8753	-21.1019	181.006	22.7598	0.74051	164.841	-9.20333	-21.064	159.453	10.5266	-8.25831	182.041	12.1638	4.40689	206.683	-27.074	-10.5452	219.659	-33.4642	7.77222	230.795	-14.9878	-8.69419	
46	0.383333	232.278	19.3948	10.2027	205.99	38.8378	-5.41152	185.924	41.817	-17.3231	165.274	39.3344	-21.5664	213.237	16.0355	-52.0259	201.427	26.8137	-73.157	183.4	43.0787	-84.4978	187.354	10.3828	-54.3104	166.176	30.4617	-45.3473	177.278	32.2432	-14.8822	169.25	3.8234	-36.7598	163.689	24.1949	-21.2899	181.99	21.4617	0.79801	167.433	-6.66101	-23.2484	162.244	12.4485	-7.32765	185.021	9.17991	6.17344	205.772	-28.8233	-11.9661	219.205	-35.5744	11.039	233.056	-13.278	-9.36341	
47	0.391667	231.735	18.6704	6.9812	207.803	38.2972	-3.27773	187.579	44.4908	-16.0741	166.062	37.328	-24.0413	213.565	15.0371	-54.0406	196.615	24.6415	-72.6271	175.397	44.3487	-78.9976	186.32	5.8359	-52.6022	168.274	27.8786	-49.4842	176.562	32.8247	-16.4329	172.062	-1.01553	-35.442	163.411	22.331	-22.6915	177.626	20.9699	0.929143	164.245	-9.93581	-21.608	161.779	10.5821	-6.29434	182.939	8.50064	7.76984	208.39	-27.0088	-13.1543	221.657	-36.1208	8.78022	230.78	-14.3595	-7.28672	
48	0.4	231.366	16.5935	7.61822	209.587	39.5695	-2.24801	188.027	41.5011	-18.2272	164.179	35.8336	-26.029	214.252	15.3219	-55.476	194.889	26.2096	-72.8141	176.841	44.9297	-72.886	187.572	8.19001	-55.9208	166.56	25.8354	-48.3136	176.499	29.1879	-16.2139	171.312	0.788873	-38.1509	163.997	21.2074	-26.092	180.398	17.551	0.831566	166.75	-12.7446	-22.6191	165.426	11.3526	-9.07693	181.478	8.06769	6.54721	210.299	-30.0121	-12.3618	220.232	-33.9631	7.24704	234.842	-12.3267	-7.50373	
49	0.408333	230.818	15.6691	6.11714	208.945	37.1261	-3.11476	186.917	41.9809	-19.6532	163.078	33.9068	-27.9838	209.485	12.5641	-57.5362	192.763	23.7795	-70.6414	173.806	43.1416	-64.1473	186.476	4.78054	-56.0285	167.025	22.5728	-51.6122	175.716	29.5469	-18.6625	176.272	0.447672	-38.7662	164.437	19.957	-24.4944	180.186	20.3654	-3.25791	167.037	-13.8167	-23.6629	160.973	7.5011	-11.0005	182.888	7.44	6.64476	211.853	-29.9669	-12.6548	221.305	-35.4088	6.80988	233.917	-11.8552	-10.5887	
50	0.416667	231.738	18.1816	6.60492	207.416	34.6853	-4.49912	187.277	38.7224	-18.2083	166.485	31.4469	-26.0945	210.782	9.72355	-53.4655	189.335	27.2528	-70.9159	173.332	42.8714	-58.7007	191.047	2.28573	-52.7763	169.404	24.0672	-52.1082	175.461	29.3671	-21.7097	176.879	-3.95836	-39.2996	165.632	18.2066	-23.211	178.707	13.9172	-1.30117	166.757	-14.9072	-25.0429	163.856	6.39549	-12.5507	182.35	5.20392	5.18407	213.48	-30.0354	-12.1934	224.399	-35.8288	6.75408	233.833	-15.2616	-6.41975	
51	0.425	227.756	14.668	4.78636	206.574	33.2548	-4.24025	185.938	36.1097	-17.8311	163.937	27.7614	-26.4332	210.086	10.0014	-58.4905	190.927	22.9546	-70.4201	169.905	37.3522	-53.6519	190.18	2.20653	-55.1965	166.86	18.7278	-50.3649	176.455	25.553	-20.4663	174.025	-3.96527	-39.4728	165.619	15.8105	-22.816	180.55	10.708	-2.1275	172.001	-15.1596	-24.9371	164.247	3.11406	-10.5033	184.919	3.76277	1.73668	213.385	-31.7968	-16.2214	225.598	-36.0475	11.2406	236.439	-13.5596	-6.22133	
52	0.433333	227.795	15.059	5.73624	203.464	33.5698	-7.02163	183.167	36.8872	-21.0669	159.922	24.9946	-29.2013	211.48	6.54083	-53.9507	191.405	21.5347	-70.4238	170.676	37.8116	-54.0412	192.604	0.361601	-55.572	169.546	17.552	-54.6774	175.437	22.542	-21.1152	179.77	-7.73596	-38.8394	165.852	12.4795	-24.0066	182.037	10.2611	-2.42535	169.089	-18.5606	-25.523	164.924	0.1287	-14.7928	183.159	0.329518	6.49739	216.482	-29.8326	-13.3389	227.424	-39.162	11.6434	238.068	-10.9725	-9.11217	
53	0.441667	228.356	19.1387	5.49126	203.106	32.7886	-6.574	179.758	35.4544	-22.5379	162.641	24.4166	-27.1913	213.148	10.2518	-55.8755	190.494	17.581	-71.3626	167.477	34.3031	-57.6697	192.378	-1.82633	-54.8015	168.58	16.445	-53.4333	174.362	21.7547	-22.4403	180.575	-8.70512	-39.882	165.849	11.3276	-25.4093	182.261	9.80628	-3.32412	168.37	-20.1747	-25.6371	165.16	-0.626256	-8.53516	185.71	1.05245	2.25213	212.803	-32.5267	-15.4007	227.297	-37.4304	7.37655	236.634	-13.4698	-8.18403	
54	0.45	228.739	15.5558	7.97301	201.451	35.2585	-6.70395	180.702	36.3693	-20.1038	162.009	20.0402	-27.7801	214.504	10.6477	-55.0778	190.492	15.1446	-73.4106	170.743	33.7526	-68.9378	189.809	-4.20685	-55.5206	166.702	15.5215	-51.3651	175.638	23.942	-21.5869	179.684	-10.865	-39.1449	163.301	8.67845	-22.9549	180.014	10.2828	-3.5197	171.167	-20.4933	-24.6444	167.01	-0.194689	-13.2289	185.628	3.1803	2.5343	216.635	-34.0834	-13.0002	231.51	-35.0795	10.9405	239.2	-12.353	-4.97776	
55	0.458333	228.347	19.0318	7.30571	200.969	36.0017	-4.9067	178.326	34.0023	-20.7889	160.618	23.2099	-26.4754	211.509	8.99305	-59.6804	197.845	17.9579	-75.0846	172.618	27.8639	-77.195	189.847	-4.06072	-55.4857	168.065	14.7175	-53.6296	173.995	23.6362	-22.374	179.795	-8.56447	-40.3505	163.664	7.85158	-27.0364	181.657	8.4238	0.0954591	172.954	-22.3952	-23.6634	163.225	-3.23557	-9.63895	184.601	3.25097	2.76063	217.454	-32.7902	-10.9421	230.373	-36.1292	8.72418	239.501	-11.2579	-6.28783	
56	0.466667	226.888	18.1962	5.42213	197.975	33.9022	-9.3383	178.605	34.9469	-18.6527	159.056	20.0927	-27.6061	212.572	10.5493	-56.0197	193.956	18.8466	-77.125	172.335	29.7317	-84.1227	195.224	-0.809064	-54.1531	165.248	13.4231	-50.6741	172.196	22.7432	-23.4443	176.772	-10.0045	-39.1625	164.957	10.2826	-27.5118	180.734	11.53	-0.342413	175.882	-20.4361	-24.9195	164.527	-2.95287	-9.92446	183.658	4.75462	3.28176	217.679	-31.0334	-13.7993	230.898	-31.074	8.73634	240.394	-10.6913	-6.72799	
57	0.475	225.974	23.571	3.61103	196.715	37.6035	-6.71501	177.632	34.8158	-18.3616	156.588	19.9115	-28.8156	214.166	14.508	-59.1978	198.413	21.3479	-78.0633	178.972	29.3718	-88.4445	191.25	1.59539	-57.9963	168.51	16.0258	-54.5555	170.747	20.0899	-21.3925	177.223	-10.1628	-39.7207	163.38	8.60756	-27.1762	178.897	10.6555	-0.183044	174.533	-18.8288	-24.7587	167.297	1.09631	-13.094	184.152	1.2879	5.80302	219.076	-26.5515	-17.3466	232.964	-30.1925	6.24143	239.228	-8.94391	-6.0092	
58	0.483333	227.259	25.7552	6.87705	196.609	35.3558	-9.1149	177.45	32.6004	-18.4151	157.577	19.287	-28.3403	213.644	14.0121	-56.444	198.656	20.5028	-74.7417	180.594	32.5963	-90.1545	194.109	0.760631	-54.8263	168.036	16.0996	-55.2794	173.13	25.8725	-22.0084	178.048	-10.878	-39.2731	164.637	12.5822	-25.4881	178.595	11.7994	-0.608415	173.778	-17.2864	-25.5661	164.859	-2.68783	-11.344	188.792	2.91127	5.23155	219.353	-26.1625	-17.5271	231.707	-31.9709	8.04377	241.347	-6.05122	-8.20039	
59	0.491667	226.259	26.3438	5.10973	194.54	37.7548	-6.74229	175.176	30.7159	-19.134	155.896	21.2164	-27.0436	209.39	16.6203	-59.3007	195.997	25.905	-77.3913	173.594	31.0208	-90.1367	190.767	0.93068	-57.2003	167.699	17.4184	-54.9598	169.803	21.678	-21.5331	177.665	-6.75274	-41.0327	163.258	9.57416	-26.4794	177.943	11.9913	-0.995319	175.636	-18.5382	-25.8504	166.505	-0.307729	-12.3178	186.959	4.1205	3.23574	219.704	-27.42	-16.265	234.997	-26.4892	9.92457	238.582	-5.44667	-7.81309	
60	0.5	225.072	26.8242	6.16581	193.555	39.5336	-5.58026	174.256	33.5005	-16.3218	153.385	17.4417	-27.7274	209.79	17.314	-56.0147	193.885	22.0065	-73.1608	172.337	29.3639	-84.082	192.943	2.90457	-55.9954	163.063	15.1854	-51.8685	166.646	20.5378	-21.7383	175.606	-9.2759	-40.5171	161.081	6.56543	-26.1468	179.657	14.0518	-2.87698	175.213	-21.8769	-24.5044	164.024	-5.13886	-10.4811	185.066	5.33951	2.26043	222.087	-26.3844	-14.249	235.669	-25.8847	8.21043	241.171	-1.52132	-9.27271	
61	0.508333	222.617	25.2821	7.14155	193.514	35.9275	-3.31283	171.731	31.1377	-18.3336	154.945	19.117	-24.5895	205.224	17.3013	-58.8193	186.332	24.9576	-74.8635	165.886	30.7387	-79.822	190.178	2.26159	-56.7652	162.213	14.2727	-51.1603	165.381	22.8033	-23.9384	177.051	-7.31133	-40.4592	159.863	3.6656	-25.2358	174.825	11.4712	-3.06217	173.529	-20.0914	-25.4355	166.11	-3.55731	-10.2137	188.542	1.68999	5.82619	221.519	-21.6136	-16.6893	235.536	-25.1756	9.00828	239.657	0.750182	-11.3998	
62	0.516667	220.526	24.3111	6.22557	190.64	32.7473	-6.78866	170.936	29.9958	-16.3338	154.212	11.7292	-25.7014	204.602	17.9787	-57.2802	182.923	20.6862	-71.1795	160.475	27.8025	-72.4255	190.466	-0.371776	-55.7416	163.065	10.2436	-53.2073	166	18.1345	-20.4781	178.907	-13.91	-38.9632	162.368	6.2543	-24.8894	175.211	6.70322	-0.247329	177.209	-23.5732	-25.4443	164.818	-7.53653	-8.8732	185.741	2.54575	2.67314	222.629	-24.093	-16.8871	235.867	-23.981	10.0599	239.293	3.51927	-9.99402	
